<svg width="616" height="173" viewBox="0 0 616 173" fill="none" xmlns="http://www.w3.org/2000/svg">
<circle cx="9" cy="11.0001" r="9" fill="white"/>
<circle cx="599" cy="12.0001" r="9" fill="white"/>
<path d="M311.492 169.625L273.509 90.6296L349.949 90.9429L311.492 169.625Z" fill="#FAD062"/>
<path d="M227.416 169.962L193.23 88.628L269.538 93.8902L227.416 169.962Z" fill="#F5A1C3"/>
<path d="M394.705 166.453L428.891 85.1192L352.583 90.3814L394.705 166.453Z" fill="#F5A1C3"/>
<path d="M45.548 126.075L37.0378 35.9935L107.272 71.2807L45.548 126.075Z" fill="#F5A1C3"/>
<path d="M575.386 116.957L583.896 26.8755L513.662 62.1628L575.386 116.957Z" fill="#F5A1C3"/>
<path d="M135.626 153.605L114.76 66.3227L188.952 87.8475L135.626 153.605Z" fill="#FAD062"/>
<path d="M487.835 148.371L508.701 61.0888L434.509 82.6136L487.835 148.371Z" fill="#FAD062"/>
<path d="M14.3594 16.0001C110.988 121.981 498.532 109.835 594.359 16.0001" stroke="white" stroke-width="10" stroke-linecap="round"/>
</svg>
